# Blender v2.79 (sub 0) OBJ File: 'tower.blend'
# www.blender.org
mtllib tower.mtl
o Cube.001_Cube.003
v 1.244840 3.404241 -0.972873
v -0.056916 3.404241 -0.972873
v -0.056916 3.404241 0.864364
v 1.244840 3.404241 0.864364
v 1.326222 3.404241 -1.054255
v 1.326222 -0.085116 -1.054255
v 1.326222 3.404241 0.945745
v 1.326222 -0.085116 0.945745
v -0.138298 3.404241 -1.054255
v -0.673779 -0.085116 -1.054255
v -0.138298 3.404241 0.945745
v -0.673779 -0.085116 0.945745
v 0.195743 0.129743 0.864364
v 0.195743 0.129743 -0.972873
v 0.603615 2.635173 0.874004
v -0.035828 2.894237 0.874004
v 0.603615 2.635173 -0.982513
v -0.035828 2.894237 -0.982513
v 1.259856 1.871403 0.940491
v 0.587885 1.740992 0.890958
v 1.259856 1.871403 -1.049001
v 0.587885 1.740992 -0.999468
v 1.226292 1.627697 0.927739
v 1.226292 1.627697 -1.036248
v -0.138298 0.506975 -1.054255
v -0.138298 0.506975 0.945745
v -1.934384 0.506975 -1.054255
v -1.934384 -0.085116 -1.054255
v -1.934384 -0.085116 0.945745
v -1.934384 0.506975 0.945745
v 0.319569 1.258776 0.870442
v 0.319569 1.258776 -0.978952
v -0.138298 0.506975 0.820478
v -0.138298 0.506975 -0.928987
v -1.853458 0.506975 0.817354
v -1.853458 0.506975 -0.925863
v -1.853458 0.123469 0.817354
v -1.853458 0.123469 -0.925863
v -0.138298 2.311936 0.820478
v -0.138298 2.311936 -0.928987
vt 0.833722 0.190514
vt 0.825985 0.008099
vt 0.833722 0.000362
vt 0.453469 0.860256
vt 0.305997 0.915856
vt 0.278791 0.860256
vt 0.643570 0.000362
vt 0.651307 0.182777
vt 0.643570 0.190514
vt 0.825985 0.182777
vt 0.310368 0.642846
vt 0.120215 0.367385
vt 0.310368 0.311092
vt 0.651308 0.008099
vt 0.317793 0.501968
vt 0.488875 0.581082
vt 0.313042 0.581082
vt 0.056656 0.120215
vt 0.332117 0.310368
vt 0.000362 0.310368
vt 0.897282 0.642846
vt 0.707130 0.311091
vt 0.897282 0.311091
vt 0.642846 0.000362
vt 0.452694 0.190514
vt 0.452694 0.000362
vt 0.618120 0.874562
vt 0.765611 0.819013
vt 0.792798 0.874622
vt 0.834446 0.199000
vt 0.908876 0.063423
vt 0.945737 0.153414
vt 0.180820 0.803238
vt 0.278067 0.923504
vt 0.180820 0.923504
vt 0.690188 0.501968
vt 0.554611 0.576398
vt 0.491550 0.501968
vt 0.030097 0.999638
vt 0.180096 0.803238
vt 0.150362 0.999638
vt 0.311092 0.639292
vt 0.792798 0.875346
vt 0.645326 0.930946
vt 0.618120 0.875346
vt 0.461725 0.274462
vt 0.595593 0.191238
vt 0.609196 0.274462
vt 0.738804 0.309357
vt 0.886275 0.253757
vt 0.913481 0.309357
vt 0.812951 0.818247
vt 0.945781 0.657173
vt 0.945781 0.804644
vt 0.000362 0.311091
vt 0.120215 0.311091
vt 0.278791 0.803238
vt 0.468943 0.859532
vt 0.278791 0.859532
vt 0.706406 0.501244
vt 0.698712 0.323299
vt 0.706405 0.311092
vt 0.000362 0.120215
vt 0.056656 0.000362
vt 0.332841 0.000362
vt 0.113696 0.643570
vt 0.113850 0.766052
vt 0.053096 0.694650
vt 0.618120 0.648040
vt 0.812952 0.643570
vt 0.586553 0.311092
vt 0.586553 0.323002
vt 0.586553 0.501244
vt 0.698712 0.489037
vt 0.391748 0.766052
vt 0.226010 0.802514
vt 0.226010 0.766052
vt 0.311092 0.501244
vt 0.311092 0.311091
vt 0.464071 0.323002
vt 0.503908 0.766052
vt 0.391748 0.802515
vt 0.504063 0.643570
vt 0.564662 0.694651
vt 0.675505 0.247190
vt 0.738080 0.309357
vt 0.031128 0.802042
vt 0.000362 0.719375
vt 0.395416 0.247190
vt 0.475328 0.191238
vt 0.332841 0.309357
vt 0.617397 0.719375
vt 0.586630 0.802043
vt 0.464071 0.489334
vt 0.586553 0.489334
vt 0.120215 0.642846
vt 0.426262 0.915856
vt 0.484125 0.501968
vt 0.332117 0.120215
vt 0.707130 0.642846
vt 0.642846 0.190514
vt 0.645346 0.818971
vt 0.834446 0.000362
vt 0.278067 0.803238
vt 0.644602 0.613259
vt 0.000362 0.803238
vt 0.490826 0.639292
vt 0.765592 0.930946
vt 0.766010 0.253757
vt 0.000362 0.367385
vt 0.468943 0.803238
vt 0.000362 0.000362
vt 0.332841 0.190514
vt 0.618120 0.813778
vn 0.0000 1.0000 0.0000
vn -0.7681 0.6404 0.0000
vn 0.0000 0.0000 1.0000
vn -0.9171 -0.3987 0.0000
vn 0.0000 0.0000 -1.0000
vn 1.0000 0.0000 0.0000
vn 0.0000 -1.0000 0.0000
vn 0.0000 -0.0125 0.9999
vn -0.0535 -0.1322 0.9898
vn -0.7585 -0.6517 0.0000
vn 0.0691 0.0227 -0.9974
vn 0.8796 0.4757 0.0000
vn 0.8738 -0.4862 0.0000
vn 0.0000 -0.0189 -0.9998
vn -0.9906 0.1364 0.0000
vn 0.9991 0.0413 0.0000
vn -0.8239 0.5668 0.0000
vn -1.0000 0.0000 0.0000
vn 0.1085 0.0000 0.9941
vn -0.0031 1.0000 0.0000
vn 0.0018 0.0000 -1.0000
vn 0.1085 0.0000 -0.9941
vn 0.0579 0.0024 0.9983
vn 0.0829 -0.0037 0.9966
vn 0.1214 -0.0080 0.9926
vn 0.0018 0.0000 1.0000
vn 0.0651 0.0432 0.9969
vn 0.0651 0.0432 -0.9969
vn 0.0579 0.0024 -0.9983
vn 0.0829 -0.0037 -0.9966
vn 0.1214 -0.0080 -0.9926
vn -0.0078 -0.0192 0.9998
vn 0.0691 0.0227 0.9974
vn -0.0535 -0.1322 -0.9898
vn -0.0038 -0.0094 -0.9999
vn 0.0231 -0.0953 -0.9952
vn 0.0231 -0.0953 0.9952
usemtl None
s off
f 11/1/1 2/2/1 9/3/1
f 1/4/2 15/5/2 4/6/2
f 5/7/1 4/8/1 7/9/1
f 7/9/1 3/10/1 11/1/1
f 7/11/3 26/12/3 8/13/3
f 9/3/1 1/14/1 5/7/1
f 39/15/4 32/16/4 31/17/4
f 25/18/5 5/19/5 6/20/5
f 5/21/6 8/22/6 6/23/6
f 6/24/7 12/25/7 10/26/7
f 2/27/8 17/28/8 1/29/8
f 18/30/9 21/31/9 17/32/9
f 17/33/10 19/34/10 15/35/10
f 16/36/11 19/37/11 20/38/11
f 16/39/12 22/40/12 18/41/12
f 32/16/13 20/42/13 31/17/13
f 4/43/14 16/44/14 3/45/14
f 23/46/15 21/47/15 24/48/15
f 3/49/16 18/50/16 2/51/16
f 14/52/17 23/53/17 24/54/17
f 26/12/3 29/55/3 12/56/3
f 30/57/18 28/58/18 29/59/18
f 30/60/1 36/61/1 27/62/1
f 10/63/5 27/64/5 25/18/5
f 12/25/7 28/65/7 10/26/7
f 40/66/19 34/67/19 32/68/19
f 14/52/20 37/69/20 13/70/20
f 25/71/1 36/61/1 34/72/1
f 26/73/1 35/74/1 30/60/1
f 35/75/6 38/76/6 36/77/6
f 11/78/18 9/79/18 40/80/18
f 33/81/21 37/82/21 35/75/21
f 39/83/22 31/84/22 33/81/22
f 22/85/23 14/86/23 24/48/23
f 32/68/24 14/87/24 22/88/24
f 34/67/25 14/87/25 32/68/25
f 38/76/26 34/67/26 36/77/26
f 21/47/27 22/85/27 24/48/27
f 20/89/28 19/90/28 23/46/28
f 23/46/29 13/91/29 20/89/29
f 20/92/30 13/93/30 31/84/30
f 33/81/31 31/84/31 13/93/31
f 11/78/18 39/94/18 26/73/18
f 26/73/18 39/94/18 33/95/18
f 34/72/18 40/80/18 25/71/18
f 11/78/18 40/80/18 39/94/18
f 40/80/18 9/79/18 25/71/18
f 12/56/3 8/13/3 26/12/3
f 7/11/3 11/96/3 26/12/3
f 11/1/1 3/10/1 2/2/1
f 1/4/2 17/97/2 15/5/2
f 5/7/1 1/14/1 4/8/1
f 7/9/1 4/8/1 3/10/1
f 9/3/1 2/2/1 1/14/1
f 39/15/4 40/98/4 32/16/4
f 6/20/5 10/63/5 25/18/5
f 25/18/5 9/99/5 5/19/5
f 5/21/6 7/100/6 8/22/6
f 6/24/7 8/101/7 12/25/7
f 2/27/32 18/102/32 17/28/32
f 18/30/33 22/103/33 21/31/33
f 17/33/10 21/104/10 19/34/10
f 16/36/34 15/105/34 19/37/34
f 16/39/12 20/106/12 22/40/12
f 32/16/13 22/107/13 20/42/13
f 4/43/35 15/108/35 16/44/35
f 23/46/15 19/90/15 21/47/15
f 3/49/16 16/109/16 18/50/16
f 14/52/17 13/70/17 23/53/17
f 26/12/3 30/110/3 29/55/3
f 30/57/18 27/111/18 28/58/18
f 30/60/1 35/74/1 36/61/1
f 10/63/5 28/112/5 27/64/5
f 12/25/7 29/113/7 28/65/7
f 14/52/20 38/114/20 37/69/20
f 25/71/1 27/62/1 36/61/1
f 26/73/1 33/95/1 35/74/1
f 35/75/6 37/82/6 38/76/6
f 33/81/36 13/93/36 37/82/36
f 38/76/37 14/87/37 34/67/37
